<?xml version="1.0" encoding="UTF-8" standalone="no"?>
<svg
   xmlns:dc="http://purl.org/dc/elements/1.1/"
   xmlns:cc="http://creativecommons.org/ns#"
   xmlns:rdf="http://www.w3.org/1999/02/22-rdf-syntax-ns#"
   xmlns:svg="http://www.w3.org/2000/svg"
   xmlns="http://www.w3.org/2000/svg"
   xmlns:sodipodi="http://sodipodi.sourceforge.net/DTD/sodipodi-0.dtd"
   xmlns:inkscape="http://www.inkscape.org/namespaces/inkscape"
   style="margin: auto; background: rgba(255, 255, 255, 0); display: block;"
   width="200px"
   height="200px"
   viewBox="0 0 100 100"
   preserveAspectRatio="xMidYMid"
   version="1.1"
   id="svg138"
   sodipodi:docname="loading2.svg"
   inkscape:version="1.0.1 (3bc2e813f5, 2020-09-07)">
  <metadata
     id="metadata144">
    <rdf:RDF>
      <cc:Work
         rdf:about="">
        <dc:format>image/svg+xml</dc:format>
        <dc:type
           rdf:resource="http://purl.org/dc/dcmitype/StillImage" />
        <dc:title />
      </cc:Work>
    </rdf:RDF>
  </metadata>
  <defs
     id="defs142" />
  <sodipodi:namedview
     pagecolor="#ffffff"
     bordercolor="#666666"
     borderopacity="1"
     objecttolerance="10"
     gridtolerance="10"
     guidetolerance="10"
     inkscape:pageopacity="0"
     inkscape:pageshadow="2"
     inkscape:window-width="3840"
     inkscape:window-height="2066"
     id="namedview140"
     showgrid="false"
     inkscape:zoom="5.3598694"
     inkscape:cx="-56.928303"
     inkscape:cy="52.332743"
     inkscape:window-x="-11"
     inkscape:window-y="-11"
     inkscape:window-maximized="1"
     inkscape:current-layer="svg138"
     inkscape:snap-bbox="true"
     inkscape:snap-nodes="true"
     inkscape:document-rotation="0" />
  <g
     id="g86">
    <animateTransform
       attributeName="transform"
       type="rotate"
       values="360 50 50;0 50 50"
       keyTimes="0;1"
       dur="1.25s"
       repeatCount="indefinite"
       calcMode="spline"
       keySplines="0.5 0 0.5 1"
       begin="-0.14375000000000002s" />
    <circle
       cx="50"
       cy="50"
       r="39.891"
       stroke="#e79132"
       stroke-width="14.4"
       fill="none"
       stroke-dasharray="0 300"
       id="circle78">
      <animate
         attributeName="stroke-dasharray"
         values="15 300;63.41256390744134 300;15 300"
         keyTimes="0;0.5;1"
         dur="1.25s"
         repeatCount="indefinite"
         calcMode="linear"
         keySplines="0 0.4 0.6 1;0.4 0 1 0.6"
         begin="-0.066125s" />
    </circle>
    <circle
       cx="50"
       cy="50"
       r="39.891"
       stroke="#e0be90"
       stroke-width="7.2"
       fill="none"
       stroke-dasharray="0 300"
       id="circle80">
      <animate
         attributeName="stroke-dasharray"
         values="15 300;63.41256390744134 300;15 300"
         keyTimes="0;0.5;1"
         dur="1.25s"
         repeatCount="indefinite"
         calcMode="linear"
         keySplines="0 0.4 0.6 1;0.4 0 1 0.6"
         begin="-0.066125s" />
    </circle>
    <circle
       cx="50"
       cy="50"
       r="32.771"
       stroke="#3c3b3c"
       stroke-width="1"
       fill="none"
       stroke-dasharray="0 300"
       id="circle82">
      <animate
         attributeName="stroke-dasharray"
         values="15 300;52.09428522250031 300;15 300"
         keyTimes="0;0.5;1"
         dur="1.25s"
         repeatCount="indefinite"
         calcMode="linear"
         keySplines="0 0.4 0.6 1;0.4 0 1 0.6"
         begin="-0.066125s" />
    </circle>
    <circle
       cx="50"
       cy="50"
       r="47.171"
       stroke="#3c3b3c"
       stroke-width="1"
       fill="none"
       stroke-dasharray="0 300"
       id="circle84">
      <animate
         attributeName="stroke-dasharray"
         values="15 300;75.93897346324685 300;15 300"
         keyTimes="0;0.5;1"
         dur="1.25s"
         repeatCount="indefinite"
         calcMode="linear"
         keySplines="0 0.4 0.6 1;0.4 0 1 0.6"
         begin="-0.066125s" />
    </circle>
  </g>
  <g
     id="g98"
     transform="matrix(1.0052146,0,0,1,-0.36553619,0)">
    <animateTransform
       attributeName="transform"
       type="rotate"
       values="360 50 50;0 50 50"
       keyTimes="0;1"
       dur="1.25s"
       repeatCount="indefinite"
       calcMode="spline"
       keySplines="0.5 0 0.5 1" />
    <g
       id="g1616"
       transform="matrix(-0.57505276,-0.84231179,-1.1875546,0.55005026,217.03006,100.69217)"
       style="opacity:1">
      <g
         id="g1620">
        <path
           fill="#e79132"
           stroke="#3c3b3c"
           d="m 69.224795,77.329688 c -2.760411,7.31431 2.552041,16.046447 7.282076,18.143017 2.278386,-3.959783 0.962661,-6.968209 8.429399,-11.218718 7.226001,-5.02585 6.101913,-18.938441 0.883347,-19.312249 -5.806833,-1.687123 -15.244419,8.809764 -16.594822,12.38795 z"
           id="path96"
           style="stroke-width:1;stroke-miterlimit:4;stroke-dasharray:none"
           sodipodi:nodetypes="scccs" />
      </g>
      <path
         style="fill:#f0dfc8;fill-opacity:1;stroke:#3c3b3c;stroke-width:1.06764;stroke-linecap:butt;stroke-linejoin:miter;stroke-miterlimit:4;stroke-dasharray:none;stroke-opacity:1"
         d="m 77.433542,84.66832 5.127039,-4.201771 0.487199,4.855298 c 0,0 -1.593425,1.609234 -2.606071,2.702338 -2.17381,2.346526 -2.663502,4.619654 -3.985142,6.87113 0,0 -4.050926,-1.349156 -6.304497,-6.171014 -2.000917,-4.281269 -1.178156,-9.811366 -1.178156,-9.811366 l 3.247827,4.719106 3.884559,-4.242927 z"
         id="path1045"
         sodipodi:nodetypes="cccssscccc" />
    </g>
    <path
       fill="#e79132"
       stroke="#3c3b3c"
       d="m 97.2,50 c 0,6.1 -1.2,12.2 -3.5,17.8 L 80.4,62.4 C 82,58.5 82.8,54.2 82.8,50"
       id="path88" />
    <path
       fill="#e0be90"
       d="m 93.6,50 c 0,1.2 0,2.4 -0.1,3.6 L 93,57.2 c -0.4,2 -2.3,3.3 -4.2,2.8 L 88.6,59.9 C 86.8,59.4 85.5,57.6 85.9,56 l 0.4,-3 c 0.1,-1 0.1,-2 0.1,-3"
       id="path90"
       transform="translate(0,-0.1)" />
    <path
       fill="#e79132"
       stroke="#3c3b3c"
       d="m 85.281287,63.252242 c -0.2,0.7 -0.5,1.4 -0.8,2.1 -0.3,0.7 -0.6,1.4 -0.9,2 -0.6,1.1 -2,1.4 -3.2,0.8 v 0 c -1.1,-0.7 -1.7,-2 -1.2,-2.9 0.3,-0.6 0.5,-1.2 0.8,-1.8 0.2,-0.6 0.6,-1.2 0.7,-1.8"
       id="path92" />
    <path
       fill="#e79132"
       stroke="#3c3b3c"
       d="m 94.5,65.7 c -0.3,0.9 -0.7,1.7 -1,2.6 -0.4,0.8 -0.7,1.7 -1.1,2.5 -0.7,1.4 -2.3,1.9 -3.4,1.3 v 0 c -1.1,-0.7 -1.5,-2.2 -0.9,-3.4 0.4,-0.8 0.7,-1.5 1,-2.3 0.3,-0.8 0.7,-1.5 0.9,-2.3"
       id="path94" />
    <path
       fill="#e79132"
       stroke="#3c3b3c"
       d="m 84.478133,66.063424 c 0,0 -0.1153,0.166415 -0.749161,1.273821 -0.606405,1.040324 -2.056462,1.367832 -3.121359,0.622183 v 0 c -1.064898,-0.745649 -1.589019,-2.089262 -0.958085,-2.99033 0.659896,-1.176775 0.640824,-1.066703 0.640824,-1.066703 1.118733,-0.39322 3.780207,0.95966 4.187794,2.161039 z"
       id="path112-6-2"
       sodipodi:nodetypes="scsscss"
       style="display:block;fill:#3c3b3c;fill-opacity:1;stroke:none;stroke-width:1" />
    <path
       fill="#e79132"
       stroke="#3c3b3c"
       d="m 92.969083,70.203996 c 0,0 -0.1153,0.166415 -0.74916,1.273821 -0.6064,1.040324 -2.05646,1.367832 -3.12136,0.622183 v 0 c -1.06489,-0.745649 -1.58902,-2.089262 -0.95808,-2.99033 0.65989,-1.176775 0.64082,-1.066703 0.64082,-1.066703 1.11874,-0.39322 3.78021,0.95966 4.1878,2.161039 z"
       id="path112-6-2-1"
       sodipodi:nodetypes="scsscss"
       style="display:block;fill:#3c3b3c;fill-opacity:1;stroke:none;stroke-width:1" />
  </g>
  <g
     id="g136">
    <animateTransform
       attributeName="transform"
       type="rotate"
       values="360 50 50;0 50 50"
       keyTimes="0;1"
       dur="1.25s"
       repeatCount="indefinite"
       calcMode="spline"
       keySplines="0.5 0 0.5 1"
       begin="-0.14375000000000002s" />
    <path
       fill="#e0be90"
       stroke="#3c3b3c"
       d="m 87.081994,34.439573 -6.268566,2.320854 c -0.4,-1.2 -2.312716,-5.10529 -2.912716,-6.20529 -0.2,-0.5 0.3,-0.540284 0.9,-0.440284 3.773144,0.639573 6.08057,2.598575 8.281282,4.32472 z"
       id="path100"
       style="fill:#e4ceac;fill-opacity:1"
       sodipodi:nodetypes="ccccc" />
    <path
       fill="#e0be90"
       stroke="#3c3b3c"
       d="m 85.812004,37.353001 8.227569,-3.533571 c -0.6,-1.7 -2.153001,-6.378433 -2.953001,-7.978433 -0.3,-0.7 -1.106714,-0.6 -1.306714,0.1 -1.9,3.2 -1.467854,8.712004 -3.967854,11.412004 z"
       id="path102"
       style="fill:#e4ceac;fill-opacity:1"
       sodipodi:nodetypes="ccccc" />
    <path
       fill="#e79132"
       stroke="#3c3b3c"
       transform="translate(0,0.2)"
       d="M82.8,50c0-3.4-0.5-6.8-1.5-10c-0.2-0.8-0.4-1.5-0.3-2.3c0.1-0.8,0.4-1.6,0.7-2.4c0.7-1.5,1.9-3.1,3.7-4l0,0 c1.8-0.9,3.7-1,5.6-0.3c0.9,0.4,1.7,1,2.4,1.8c0.7,0.8,1.3,1.7,1.7,2.8c1.5,4.6,2.2,9.5,2.2,14.4"
       id="path104" />
    <path
       fill="#e0be90"
       d="m 86.500619,50.224228 c 0.213289,-2.122838 -0.07064,-4.501445 -0.50706,-6.715107 -0.296698,-1.749983 -0.923305,-3.761462 -0.629015,-5.018501 0.261328,-1.451484 0.790556,-2.288454 2.081952,-2.554931 1.893798,-0.517111 2.477637,0.07465 3.145219,0.828991 0.853762,0.845673 1.671007,2.76705 2.09909,4.693396 0.791819,2.948269 1.175189,5.885659 1.046137,8.874378"
       id="path106"
       style="stroke-width:1.40473"
       sodipodi:nodetypes="ccccccc" />
    <path
       fill="#3c3b3c"
       d="M88.6,36.6c0.1,0.3-0.2,0.7-0.6,0.8c-0.5,0.2-0.9,0-1.1-0.3c-0.1-0.3,0.2-0.7,0.6-0.8C88,36.1,88.5,36.2,88.6,36.6z"
       id="path108" />
    <path
       fill="none"
       stroke="#3c3b3c"
       d="M86,38.7c0.2,0.6,0.8,0.9,1.4,0.7c0.6-0.2,0.9-0.9,0.6-2.1c0.3,1.2,1,1.7,1.6,1.5c0.6-0.2,0.9-0.8,0.8-1.4"
       id="path110" />
    <path
       fill="#e79132"
       stroke="#3c3b3c"
       d="m 86.8,42.2 c 0.278673,1.446649 0.584255,3.129299 0.7,4.4 0.1,1.2 -0.9,2.3 -2.2,2.3 v 0 C 84,48.9 82.8,48.1 82.8,47 82.665579,45.657541 82.412692,44.447047 82.2,43.1"
       id="path112"
       sodipodi:nodetypes="ccsscc" />
    <path
       fill="#e79132"
       stroke="#3c3b3c"
       d="m 96.2,40.2 c 0.407825,1.801599 0.688111,3.901595 0.8,5.5 0.1,1.5 -0.9,2.8 -2.2,2.8 -1.3,0 -2.5,-1.1 -2.6,-2.4 -0.121798,-1.693979 -0.427133,-3.194583 -0.7,-4.9"
       id="path114"
       sodipodi:nodetypes="ccscc" />
    <path
       fill="#a50606"
       d="m 91.373584,32.005996 c 0.232906,0.213904 0.125463,0.845138 -0.302347,1.310949 -0.427809,0.465808 -1.001064,0.669231 -1.32143,0.503809 -0.232906,-0.213905 -0.125463,-0.845139 0.302348,-1.310951 0.515271,-0.51429 1.088523,-0.717717 1.321429,-0.503807 z"
       id="path128" />
    <path
       fill="#a50606"
       d="m 81.840088,36.458273 c 0.02995,0.314806 0.614576,0.449778 1.244188,0.389874 0.629611,-0.0599 1.10934,-0.359671 1.079389,-0.674477 -0.02995,-0.314806 -0.614573,-0.449776 -1.244187,-0.389873 -0.629611,0.0599 -1.206777,0.337175 -1.07939,0.674476 z"
       id="path130" />
    <ellipse
       style="fill:#3c3b3c;fill-opacity:1;stroke:#3c3b3c;stroke-width:0.62379"
       id="path862"
       cx="89.523941"
       cy="34.340855"
       rx="0.6473729"
       ry="0.71283764" />
    <ellipse
       style="display:block;fill:#3c3b3c;fill-opacity:1;stroke:#3c3b3c;stroke-width:0.62379"
       id="path862-7"
       cx="84.534462"
       cy="36.361023"
       rx="0.6473729"
       ry="0.71283764" />
    <path
       fill="#e79132"
       stroke="#3c3b3c"
       d="m 87.383036,45.126845 c 0,0 0.0012,0.202454 0.116964,1.473155 0.1,1.2 -0.9,2.3 -2.2,2.3 v 0 c -1.3,0 -2.5,-0.8 -2.5,-1.9 -0.134421,-1.342459 -0.08693,-1.241353 -0.08693,-1.241353 0.690872,-0.963788 3.647,-1.382136 4.669963,-0.631802 z"
       id="path112-6"
       sodipodi:nodetypes="scsscss"
       style="display:block;fill:#3c3b3c;fill-opacity:1;stroke:none;stroke-width:1" />
    <path
       fill="#e79132"
       stroke="#3c3b3c"
       d="m 96.682409,44.48249 c 0,0 0.0012,0.202454 0.116964,1.473155 0.1,1.2 -0.9,2.3 -2.2,2.3 v 0 c -1.3,0 -2.5,-0.8 -2.5,-1.9 -0.134421,-1.342459 -0.08693,-1.241353 -0.08693,-1.241353 0.690872,-0.963788 3.647,-1.382136 4.669963,-0.631802 z"
       id="path112-6-8"
       sodipodi:nodetypes="scsscss"
       style="display:block;fill:#3c3b3c;fill-opacity:1;stroke:none;stroke-width:1" />
  </g>
</svg>
